<svg xmlns="http://www.w3.org/2000/svg" aria-hidden="true" style="position:absolute;width:0;height:0;overflow:hidden">
  <defs>
    <symbol id="icon-address" viewBox="0 0 32 32">
      <path fill="#ff7d16" d="M25 13a9 9 0 1 0-18 0c0 3.692 2.954 8.504 9 14.268 6.046-5.764 9-10.576 9-14.268zm-9 17C8.666 23.334 5 17.666 5 13a11 11 0 0 1 22 0c0 4.666-3.666 10.334-11 17z" style="fill:var(--color1, #ff7d16)"/>
      <path fill="#ff7d16" d="M16 16a3.004 3.004 0 0 0 3-3 3.004 3.004 0 0 0-3-3 2.998 2.998 0 0 0-3 3 2.998 2.998 0 0 0 3 3zm0 2a4.997 4.997 0 0 1-5-5 4.997 4.997 0 0 1 5-5 4.997 4.997 0 0 1 5 5 4.997 4.997 0 0 1-5 5z" style="fill:var(--color1, #ff7d16)"/>
    </symbol>
    <symbol id="icon-close" viewBox="0 0 32 32">
      <path fill="#fff" d="m8.533 25.333-1.867-1.867 7.467-7.467-7.467-7.467 1.867-1.867L16 14.132l7.467-7.467 1.867 1.867-7.467 7.467 7.467 7.467-1.867 1.867L16 17.866l-7.467 7.467z" style="fill:var(--color2, #fff)"/>
    </symbol>
    <symbol id="icon-document" viewBox="0 0 32 32">
      <path fill="#e9dbc5" d="m9.412.429.202-.001.671-.001.481-.001 1.306-.002.816-.001L15.15.421h.733c.787 0 1.574-.001 2.36-.003l2.426-.002c.454 0 .907 0 1.361-.002l1.281-.001.469-.001h.642l.186-.002c.755.005 1.414.217 1.981.724.56.577.793 1.236.794 2.029l.001.145.002.479.002.344.004.933.005.975.009 1.846.01 2.102.02 4.323.749.303.213.087a9.377 9.377 0 0 0 1.534.481l.427.099.199.046c.768.185.768.185.979.401.179.432.067.898-.016 1.344l-.033.181c-.417 2.158-1.304 4.21-2.677 5.932l-.134.17-.136.17-.138.174c-.117.132-.22.23-.355.338-.369.311-.561.554-.605 1.049-.013.292-.009.581-.002.873.01.705-.183 1.305-.631 1.851-.51.501-1.094.823-1.818.819l-.176-.001-.182-.002-.185-.001-.451-.003.009.181c.021.734-.085 1.297-.573 1.877-.498.521-1.096.855-1.827.885-.174.003-.347.003-.521.003l-.202.001-.67.001-.48.001-1.306.001-.816.001-2.261.002h-.733a1960.21 1960.21 0 0 1-4.784.005c-.453 0-.907 0-1.36.002l-1.28.001-.469.001h-.642l-.186.002c-.807-.006-1.484-.223-2.09-.765-.476-.5-.692-1.112-.69-1.793v-.246l.001-.264v-.272l.002-.714.001-.729.003-1.429-.221.002-.29.002-.146.002c-.57.003-.958-.134-1.4-.5-.51-.512-.643-1.111-.648-1.81v-.214l-.001-.23-.001-.62-.001-.519v-1.227c0-.42 0-.841-.002-1.261l-.001-1.087-.001-.647v-.723l-.001-.213c.004-.671.107-1.272.587-1.767.484-.441.909-.575 1.549-.567l.15.001.364.003-.001-.13c-.006-1.043-.01-2.086-.012-3.129-.001-.504-.003-1.009-.006-1.513l-.005-1.32c0-.233-.001-.465-.003-.698-.002-.261-.002-.521-.002-.782l-.003-.23c.004-.781.191-1.483.719-2.074.466-.443 1.034-.76 1.687-.756l.177.001.183.002.186.001.454.003.005-.181c.038-.864.227-1.52.876-2.13.635-.529 1.29-.636 2.093-.635zm-1.6 1.696a1.27 1.27 0 0 0-.258.815v.151l.001.165v.176l.001.586v.419l.001 1.14.001 1.191.001 1.999.001 2.059v.765l.003 5.283.122.003.558.017.192.004c.782.028 1.304.223 1.863.769.462.61.428 1.333.424 2.059l.001.337-.001.703c-.001.299-.001.597.001.896v.695l.001.33c.003.783-.026 1.482-.597 2.081-.406.349-.804.485-1.331.502l-.228.008-.238.007-.241.008-.588.019c-.052.849-.052.849.25 1.625l.105.172a1.79 1.79 0 0 0 1.307.524l.17.001h.186l.198.001.659.001.472.001 1.283.002.802.001 2.221.002h.721l2.319.003 2.382.002c.446 0 .891 0 1.337.002a527.103 527.103 0 0 0 1.719.002h.63l.184.002c.578-.004 1.023-.13 1.446-.532.294-.321.39-.626.42-1.055h.125v-.5l-.098.063c-.21.086-.363.082-.59.062-.188-.106-.188-.106-.375-.258l-.104-.084c-2.676-2.199-4.362-5.319-4.892-8.732l-.024-.155c-.035-.248-.065-.467.02-.708.154-.2.31-.232.552-.284l.224-.05.24-.053c1.465-.335 2.888-.829 4.185-1.598.281-.125.511-.092.8-.016.006-1.442.01-2.884.013-4.326l.006-2.009.005-1.751.003-.927c.002-.291.002-.582.002-.873l.002-.32c.008-.85.008-.85-.414-1.574a13.063 13.063 0 0 1-.139-.12l-.138-.123c-.375-.258-.754-.247-1.192-.245l-.203-.001h-.675l-.484-.001-1.178-.001h-3.97c-.792 0-1.583 0-2.375-.002l-2.439-.002-1.369-.001h-1.287l-.473-.001c-.215-.001-.43 0-.645.001l-.189-.001c-.615.005-.993.211-1.422.65zm17.64 12.82-.182.086-.196.093c-1.241.578-2.498.977-3.824 1.312.03.442.088.861.199 1.289l.042.162a14.007 14.007 0 0 0 .557 1.672 11.927 11.927 0 0 0 2.827 4.189l.145.148c.257.251.525.488.793.727 1.657-1.165 2.852-2.93 3.688-4.75l.058-.125c.453-.995.901-2.209.88-3.313l-.143-.037c-1.379-.361-2.715-.777-3.995-1.417-.35-.174-.498-.207-.848-.039zm-23.67.334c-.244.282-.305.459-.299.822a.95.95 0 0 0 .364.669c.424.26.742.167 1.278.167V15c-.746-.051-.746-.051-1.343.279zM1.5 17.75c-.006.758-.01 1.517-.013 2.275l-.006 1.057c-.003.34-.004.68-.005 1.02 0 .13-.001.259-.003.389-.002.182-.002.363-.002.545l-.003.162c.002.36.072.569.281.865.272.211.487.32.831.322l.166.001.182.001.192.001.629.003.217.001 1.137.003 1.174.005c.301.002.602.002.903.002l.433.002c.202.002.404.001.606.001l.18.002c.376-.003.663-.066.977-.282.284-.306.322-.505.324-.91l.001-.148.003-.486.001-.168.003-.878.005-.906c.002-.232.002-.465.002-.697l.002-.334c.002-.156.001-.312.001-.468l.002-.139c-.003-.318-.082-.496-.282-.742-.433-.348-.875-.322-1.405-.323l-.198-.001-.424-.002-.671-.004-1.907-.011-1.167-.007-.444-.002-.622-.004h-.185a2.714 2.714 0 0 1-.916-.144z" style="fill:var(--color3, #e9dbc5)"/>
      <path fill="#ff7d16" d="M14.476 3.576a2.784 2.784 0 0 1 1.063 1.693c.059.415.041.843.037 1.261.003.204.009.394.049.594.169.171.169.171.375.25.101.107.101.107.172.211l.073.103c.162.297.208.575.212.91l.003.244.001.262.002.271.002.568c0 .241.003.482.006.723.002.187.002.374.002.56l.002.266c.009.642-.074 1.101-.481 1.607l-.13.113-.128.117c-.535.326-1.117.321-1.726.318l-.266.001-.555-.001c-.235-.001-.471 0-.706.001h-.809c-.732.003-1.382-.053-1.924-.588-.447-.549-.457-1.151-.459-1.831l-.001-.241-.001-.503c0-.213-.002-.426-.004-.639-.002-.206-.002-.411-.002-.617L9.28 9c.003-.552.083-1.081.43-1.53.42-.41.42-.41.664-.41l-.005-.166a64.31 64.31 0 0 1-.012-.621l-.006-.267c-.024-.794.125-1.447.649-2.07.955-.969 2.343-1.086 3.476-.364zm-2.773 1.172c-.285.463-.289.837-.278 1.374l.012.754H14.5c.156-1.07.156-1.07-.188-2.063a75.626 75.626 0 0 1-.133-.203c-.344-.329-.701-.501-1.18-.523-.54.026-.954.247-1.297.662zm.211 4.342c-.238.306-.319.561-.308.948.057.445.261.746.608 1.019.1.073.1.073.224.131l.043.242c.054.236.07.25.289.395.222.068.222.068.406 0 .147-.146.158-.189.195-.383.043-.22.05-.242.242-.387l.199-.117c.302-.294.454-.598.465-1.02-.008-.411-.151-.661-.433-.951-.333-.297-.623-.372-1.059-.361-.369.044-.625.212-.871.484zM28.638 17.206c.314.297.442.665.456 1.091-.005.43-.209.717-.505 1.013l-.175.177-.189.188-.194.195-.408.407-.521.521-.402.402-.192.192-.269.268-.154.154c-.257.216-.493.269-.824.276l-.185.008c-.522-.09-.89-.505-1.249-.867l-.14-.137c-.324-.324-.572-.631-.661-1.088.001-.413.066-.696.348-1.006.379-.332.696-.395 1.187-.394a.84.84 0 0 1 .438.152l.187.117c.256-.075.423-.286.603-.472l.206-.21.321-.33.313-.319.095-.099c.533-.541 1.271-.685 1.912-.237zM12.957 24.906l.241-.002.263.002.278-.001h1.542l1.324.001h1.531l1.315-.001h.785c.246-.001.492 0 .738.001h.271c.123-.001.246 0 .37.001h.209c.219.039.291.109.427.281a.624.624 0 0 1 .012.48c-.074.145-.074.145-.199.27-.164.016-.164.016-.376.017l-.243.002h-.268l-.281.001-.766.001-.639.001-1.507.001c-.519 0-1.037.001-1.556.003-.445.002-.89.002-1.335.002-.266 0-.532 0-.798.002h-.75l-.275.001c-.125.001-.25 0-.376-.001h-.213c-.22-.038-.293-.107-.43-.281-.035-.125-.035-.125-.035-.25l-.004-.125c.109-.346.424-.406.746-.407zM11.238 15.304l.183-.001h.199l.211-.001.691-.001.48-.001h1.007l1.163-.002 1.12-.001.476-.001h.665l.199-.001.183.001h.159c.251.026.417.086.58.281.089.219.084.324.008.547-.137.159-.249.24-.459.273-.189.01-.377.011-.567.01l-.218.002h-.715l-.371.001h-1.166c-.401-.001-.802 0-1.202.002-.344.002-.689.002-1.033.002l-.617.001c-.229.001-.458 0-.688-.001l-.206.002c-.458-.006-.458-.006-.706-.186-.149-.219-.151-.345-.114-.605.083-.158.13-.231.301-.287.149-.028.286-.033.438-.034zM12.813 21.719l.191-.002.209.002.221-.001c.241-.001.482 0 .723.001h.502l1.052.002c.405.002.81.002 1.215.001.39-.001.78 0 1.17.001h.498l.695.002.209-.001.191.002h.166c.179.029.265.09.397.211.047.117.047.117.063.242l.019.125c-.032.22-.103.297-.269.446-.239.048-.476.042-.719.039l-.222.001c-.201.001-.402 0-.603-.001a66.36 66.36 0 0 0-.631 0l-1.06-.002a167.01 167.01 0 0 0-1.226-.001c-.393.001-.786.001-1.18-.001h-.502c-.234 0-.467-.001-.701-.003l-.21.001-.193-.002-.167-.001c-.197-.042-.273-.128-.398-.282-.033-.125-.033-.125-.031-.25l-.002-.125c.082-.307.3-.406.596-.406zM13.105 18.531l.186-.001c.203-.001.405 0 .608.001h.422l.885.002c.378.002.757.002 1.135.001l.872.001h.419l.584.002.176-.001.161.002h.14c.157.031.211.087.308.211.076.27.075.441-.062.687-.191.127-.228.141-.443.142l-.157.002h-.172l-.181.001-.595.002-.413.001-.867.001c-.37 0-.741.002-1.111.004l-.853.002-.41.002h-.573l-.171.002c-.26-.003-.395-.011-.621-.152-.131-.141-.163-.192-.156-.381v-.125c.127-.448.504-.41.89-.406zM19.041 10.852l.165-.001c.18-.001.36 0 .54.001h.376l.787.002a339.361 339.361 0 0 0 1.784.002h.372l.52.002h.156c.445.004.445.004.635.143.073.145.075.24.078.402l.005.148c-.021.137-.021.137-.1.245-.255.188-.564.152-.869.151l-.155.001-.508.001-.354.001h-.741l-.949.002-.73.001-.35.001h-.49l-.145.001a1.861 1.861 0 0 1-.756-.141c-.11-.124-.124-.207-.127-.371.024-.336.024-.336.158-.479.226-.127.444-.113.697-.111zM19.104 7.787l.163-.001.532-.001.371-.001h.776c.331.001.663-.001.994-.002l.765-.001.367-.001c.171-.001.342 0 .512.001l.153-.002c.236.003.374.024.576.151.125.132.125.132.162.273l-.006.144-.002.145c-.036.163-.086.219-.217.32-.236.079-.457.072-.703.073l-.159.001-.522.002-.363.001-.761.001c-.325 0-.65.002-.975.004l-.749.002-.359.002-.503.001-.15.002c-.284-.002-.47-.033-.694-.212-.129-.193-.144-.222-.121-.437l.01-.129c.147-.366.567-.336.902-.334zM19.153 4.713h.212c.148 0 .296.001.443.003.227.003.453.003.68.002l.431.002h.206l.191.003.168.002c.171.03.226.075.329.212.075.24.074.347-.02.582-.106.168-.106.168-.23.23a4.714 4.714 0 0 1-.291.01l-.183.002-.199.001-.204.001-.427.001-.654.005-.415.001a12.81 12.81 0 0 1-.198.002l-.185-.001-.162.001c-.178-.028-.264-.09-.395-.21-.047-.117-.047-.117-.063-.242l-.019-.125c.08-.547.548-.489.985-.483z" style="fill:var(--color1, #ff7d16)"/>
    </symbol>
    <symbol id="icon-error" viewBox="0 0 32 32">
      <path fill="#e9dbc5" d="m3.343.599.251-.002c.226-.001.452-.002.678-.001L4.84.595 6.183.594c.46 0 .919-.001 1.379-.003.396-.002.793-.003 1.189-.002.236 0 .472 0 .708-.002h.667l.357-.002c.731.007 1.415.22 1.955.728.252.259.479.529.688.824.315.427.665.644 1.187.738.209.017.416.017.625.016l.186.001c.204.001.409 0 .613 0l.441.001.947.001 1.372.002 2.229.005h.135l1.486.002.539.001h.134l2.22.004 1.489.002.927.002h.429l.587.001.17-.001c.745.007 1.394.282 1.951.775.432.458.714 1.115.715 1.742l.001.182v.198l.001.212.001.704.001.504.002 1.514.001.714.002 2.374v.771l.004 2.477c.002.849.003 1.697.003 2.546l.002 1.428c.001.406.002.811.001 1.217l.001.62c.006 1.154-.002 2.099-.836 2.985-.63.592-1.355.775-2.199.758l-.164-.002c-.132-.001-.263-.004-.395-.006l.516 1.008.077.151c.34.663.684 1.322 1.05 1.971.391.701.656 1.353.464 2.16-.152.504-.437.965-.891 1.247-.427.219-.761.286-1.24.286l-.162.001-.537.001-.385.001-1.264.003-.435.001-2.046.003c-.787.001-1.574.002-2.361.005-.609.002-1.217.003-1.826.003l-1.09.002c-.342.001-.684.002-1.026.001l-.376.001c-.845.006-1.574-.013-2.218-.629a2.388 2.388 0 0 1-.563-1.776c.112-.622.457-1.182.746-1.734l.161-.31c.377-.727.762-1.449 1.161-2.164.041-.075.081-.152.12-.229l-.201.001a3917.205 3917.205 0 0 1-7.193.013l-2.044.004-1.082.002c-.34.001-.679.002-1.019.001l-.373.001c-1.048.006-1.917-.096-2.722-.834a2.893 2.893 0 0 1-.749-1.971l-.001-.204v-.222l-.001-.238-.001-.652-.001-.704-.002-1.538-.001-.961-.002-2.662v-.863c0-.926-.001-1.853-.003-2.779L.412 8.167c0-.534 0-1.068-.002-1.602L.409 5.201l-.001-.696V3.75l-.002-.22c.005-.904.259-1.604.877-2.262C1.878.697 2.536.598 3.336.6zm-.339 2.096c-.236.328-.239.663-.191 1.055.161.412.468.703.859.898.37.071.699.043 1.035-.129.298-.256.53-.501.605-.895.006-.419-.068-.722-.313-1.063-.36-.333-.638-.408-1.122-.399-.38.047-.627.251-.874.531zm3.084-.089c-.227.303-.256.591-.239.963.052.358.188.618.456.861.351.239.622.286 1.037.233.385-.092.7-.327.908-.663.139-.345.151-.643.062-1-.182-.358-.488-.684-.875-.813-.569-.059-.952-.003-1.35.418zm3.084-.016c-.324.389-.34.725-.297 1.223.123.355.349.576.648.797.308.147.562.166.887.07.386-.145.656-.365.84-.742.139-.366.091-.777-.055-1.132-.168-.284-.454-.495-.757-.618-.525-.061-.905-.001-1.266.402zM1.5 6.312l-.012 7.938-.005 2.508-.001 1.482-.002.991c-.001.421-.002.843-.001 1.264l-.001.464v.627l-.002.183c.004.559.146.958.53 1.372.409.379.813.432 1.351.43h.168l.56-.001h.401l1.09-.001 1.138-.001 2.156-.001 2.454-.001 5.05-.003.361-.661.103-.188c.236-.433.467-.868.693-1.308.25-.485.506-.967.77-1.445.355-.644.692-1.297 1.025-1.953 1.016-1.991 1.016-1.991 1.924-2.301.541-.154 1.041-.098 1.562.105.626.359.921.923 1.246 1.543l.124.234c.317.599.628 1.201.939 1.803.25.484.509.963.772 1.441.191.347.375.697.556 1.049l.068.133.335.656.123.241.11.215c.122.234.122.234.289.434.185.038.185.038.397.031h.239l.125-.002c.124-.002.248-.001.372 0 .649-.004 1.084-.084 1.569-.535.293-.317.43-.656.43-1.086v-.17l-.001-.186v-.197l-.001-.659v-.479l-.001-1.154-.001-1.335-.002-3.525-.004-7.953h-29zm18.937 14.063c-.371.602-.26 1.302-.204 1.975l.015.182.032.378.046.574.032.37.013.171c.044.479.162.91.52 1.248.327.251.682.393 1.101.373.425-.068.796-.227 1.054-.581.255-.409.305-.88.343-1.351l.016-.186.033-.387c.016-.196.034-.391.051-.587l.032-.379.016-.174c.046-.58.073-1.2-.286-1.689-.336-.37-.681-.594-1.181-.642-.703-.022-1.165.166-1.632.705zm.188 6.312c-.291.419-.381.808-.313 1.312.099.437.327.743.684 1.016.391.224.745.288 1.191.234.436-.125.833-.368 1.083-.752.204-.404.241-.791.122-1.228-.118-.323-.248-.547-.517-.77l-.152-.137c-.674-.477-1.576-.276-2.098.324z" style="fill:var(--color3, #e9dbc5)"/>
      <path fill="#ff7d16" d="M10.109 7.543h.125c1.716.01 3.343.562 4.64 1.707l.166.139c1.402 1.21 2.309 3.029 2.45 4.878.097 2.038-.421 4.003-1.804 5.545l-.108.133c-1.099 1.336-2.878 2.182-4.579 2.367-2.361.117-4.27-.455-6.044-2.025-.725-.688-1.239-1.505-1.643-2.413l-.091-.2c-.724-1.715-.675-3.777-.006-5.5.742-1.788 2.123-3.277 3.91-4.05.221-.087.443-.166.668-.242l.16-.054c.714-.23 1.409-.289 2.157-.286zM8.645 9.328c-.42.442-.699.999-.957 1.547.225.075.41.055.644.028l.206-.024.26-.031.828-.098V8.687c-.342 0-.739.414-.98.641zm1.98-.641v2.063l.828.094.26.03.206.023.21.024c.194.021.194.021.433.017-.265-.848-.777-1.688-1.566-2.141-.178-.089-.178-.089-.371-.109zm-3.312.563c-1.191.607-2.437 1.623-2.875 2.937.318-.12.617-.276.918-.432.266-.136.521-.232.808-.318.248-.099.321-.158.448-.398.066-.171.119-.345.173-.52.099-.319.261-.591.437-.873a6.05 6.05 0 0 0 .153-.271l-.063-.125zm5.625.062c.127.332.282.651.436.971.116.241.215.477.298.732.105.236.233.297.469.395l.198.07c.262.097.506.217.755.344l.129.065.34.173.25.125c-.444-1.227-1.522-2.218-2.641-2.826-.108-.057-.108-.057-.234-.049zm-2.313 2.438v2.687h2.687c-.073-.964-.073-.964-.207-1.922l-.038-.222c-.051-.177-.051-.177-.197-.25a9.38 9.38 0 0 0-.706-.142 17.9 17.9 0 0 0-.135-.024c-.471-.078-.921-.096-1.405-.129zm-1.945.086-.209.024a9.673 9.673 0 0 0-1.158.203c-.246.803-.312 1.531-.312 2.375h2.625v-2.687c-.317 0-.631.048-.945.086zm5.445.664.025.186.033.256.017.121c.059.459.081.91.112 1.375h2.063c-.288-.864-1-1.381-1.789-1.785-.221-.115-.221-.115-.461-.152zm-9.694 1.003c-.388.417-.388.417-.556.935h2l.25-1.937c-.573 0-1.302.622-1.694 1.003zm-.556 1.934c.401.935 1.075 1.435 1.975 1.881l.15.056.125-.063-.023-.14a38.812 38.812 0 0 1-.227-1.735h-2zm3.125 0c-.008.585-.008.585.05 1.147l.032.196.034.196.033.203c.042.35.042.35.225.633.731.208 1.499.241 2.25.313v-2.688H6.999zm3.625 0v2.688c1.19-.052 1.19-.052 2.375-.375.04-.123.04-.123.065-.274l.032-.175.032-.184.033-.174c.091-.507.116-.983.151-1.506h-2.687zm3.688 0-.098.828-.031.26-.024.206-.025.21c-.009.165.001.278.052.433.872-.408 1.754-.909 2.188-1.813v-.125h-2.063zm-9.875 2.25c.085.305.221.54.406.793l.084.115c.602.813 1.381 1.607 2.322 2.029l.125-.063-.062-.091a4.325 4.325 0 0 1-.437-.857c-.208-.625-.208-.625-.606-1.126-.179-.074-.179-.074-.37-.12-.269-.071-.498-.19-.744-.318l-.252-.128-.217-.111-.25-.125zm10.867.227a3.489 3.489 0 0 1-.892.395c-.318.093-.544.168-.733.459a5.047 5.047 0 0 0-.204.612c-.06.189-.15.359-.241.534a6.207 6.207 0 0 0-.297.648c1.048-.301 2.026-1.307 2.563-2.234.113-.209.215-.423.312-.641-.198 0-.343.126-.508.227zm-7.617 1.023c.391.83.391.83.938 1.563l.107.122c.25.269.494.42.831.565h.063v-2.062l-.793-.094-.248-.03-.198-.023-.201-.024a4.337 4.337 0 0 0-.497-.017zm4.231.041-.206.023-.26.03-.828.094v2.062c.895-.298 1.436-1.156 1.859-1.957.087-.156.087-.156.078-.293-.22 0-.425.016-.644.041zM19.102 10.991l.126-.001.418-.001.3-.001.814-.001.508-.001 1.591-.002 1.837-.003 1.42-.002c.283 0 .565 0 .848-.002l.797-.001.293-.001h.626c.217.026.335.08.509.211a.895.895 0 0 1 .063.625c-.241.24-.403.281-.739.282l-.128.001h-.422l-.303.002-.822.001-.687.001h-1.62c-.557-.001-1.114 0-1.671.002-.478.002-.957.002-1.435.002l-.857.001c-.269.001-.537.001-.806-.001l-.296.001c-.135.001-.269 0-.404-.001h-.228c-.28-.053-.384-.148-.581-.352-.038-.238-.034-.372.078-.586.219-.204.487-.172.774-.173zM18.995 8.273l.129-.001c.143-.001.285 0 .428.001l.307-.001c.278-.001.556 0 .834.001h.873l1.465.002c.565.002 1.13.002 1.695.001h2.324c.272 0 .545 0 .817.002h.3c.136-.001.273 0 .409.002l.231.001c.229.038.303.1.443.282.033.125.033.125.031.25l.002.125c-.049.185-.134.256-.283.375-.194.032-.194.032-.427.032l-.13.001h-.431l-.309.002-.84.001-.701.001h-1.653c-.569-.001-1.137 0-1.706.002-.488.002-.976.002-1.464.002l-.875.001c-.274.001-.548.001-.822-.001l-.302.001c-.137.001-.275 0-.412-.001h-.233c-.194-.039-.194-.039-.344-.186-.124-.205-.145-.305-.101-.541.231-.291.377-.352.745-.352zM24.256 13.718l.154-.001h.504l.35-.001.734.001c.314.001.627.001.941-.001h.723l.347-.001c.162-.001.323 0 .485.002l.145-.002c.22.003.339.017.516.153.103.142.129.207.127.381l.002.125c-.05.188-.129.256-.283.375-.177.025-.33.034-.506.032l-.154.001h-.504l-.35.001-.734-.001a98.388 98.388 0 0 0-.941.001h-.723l-.347.001c-.162.001-.323 0-.485-.002l-.145.002c-.22-.004-.339-.017-.516-.153-.103-.142-.129-.207-.127-.381l-.002-.125c.107-.402.432-.411.79-.407z" style="fill:var(--color1, #ff7d16)"/>
    </symbol>
   <symbol id="icon-line" viewBox="0 0 83 6">
  <path d="M82.6667 3C82.6667 1.52724 81.4728 0.333333 80 0.333333C78.5272 0.333334 77.3333 1.52724 77.3333 3C77.3333 4.47276 78.5272 5.66667 80 5.66667C81.4728 5.66667 82.6667 4.47276 82.6667 3ZM80 3L80 2.5L-1.10045e-07 2.50002L0 3.00002L1.10045e-07 3.50002L80 3.5L80 3Z" fill="url(#paint0_linear_41_684)" />
  <defs>
    <linearGradient id="paint0_linear_41_684" x1="-1.10045e-07" y1="2.50002" x2="80" y2="2.5" gradientUnits="userSpaceOnUse">
      <stop stop-color="#1B1B1B" />
      <stop offset="1" stop-color="#FF7D16" />
    </linearGradient>
  </defs>
</symbol>
    <symbol id="icon-mail" viewBox="0 0 33 32">
      <path fill="none" stroke="#ff7d16" stroke-linecap="round" stroke-linejoin="round" stroke-width="2.087" d="m7.015 9.414 9.16 7.853a.28.28 0 0 0 .347 0l9.16-7.853M4.615 5.334h23.467c.88 0 1.6.72 1.6 1.6v16.533c0 1.76-1.44 3.2-3.2 3.2H6.215a3.21 3.21 0 0 1-3.2-3.2V6.934c0-.88.72-1.6 1.6-1.6z" style="stroke:var(--color1, #ff7d16)"/>
    </symbol>
    <symbol id="icon-menu" viewBox="0 0 32 32">
      <path fill="#fff" d="M4 24v-2.667h24V24H4zm0-6.667v-2.667h24v2.667H4zm0-6.666V8h24v2.667H4z" style="fill:var(--color2, #fff)"/>
    </symbol>
    <symbol id="icon-protect" viewBox="0 0 32 32">
      <path fill="#e9dbc5" d="M6.813.437c.163.08.297.157.445.258 1.131.72 2.431 1.081 3.749 1.27l.169.027.142.019c.182.078.227.187.307.364.227 1.455-.354 3.333-1 4.625.698.096.698.096 1.321-.151a5.47 5.47 0 0 0 .367-.537c.194-.097.349-.081.562-.063.261.152.416.376.586.619.125.162.267.301.414.444l.018-.123c.203-1.364.481-2.623 1.42-3.69l.124-.142c.478-.512 1.176-1.026 1.884-1.139.255.044.342.136.492.344.03.334-.038.604-.152.914-.439 1.225-.22 2.452.215 3.648.244.004.47.003.675-.142.23-.252.344-.528.447-.849.066-.134.066-.134.185-.215.207-.069.36-.033.569.019.22.18.317.367.422.629l.081.198a.74.74 0 0 1 .06.361l.143-.001c1.155-.006 2.309-.01 3.463-.012.558-.001 1.117-.003 1.675-.006l1.461-.005c.258 0 .515-.001.773-.003.243-.002.486-.002.729-.002l.266-.002c.773-.008 1.408.122 1.99.655.512.505.746 1.102.766 1.818v.355l.001.199v.656l.001.472.001 1.146V16.261c0 .77 0 1.541.002 2.311l.002 2.377.001 1.333v1.254l.001.459c.001.21 0 .419-.001.629l.001.182c-.006.742-.215 1.398-.71 1.958-.745.72-1.612.746-2.59.743h-.272l-.734-.001h-.768l-1.454-.001-1.656-.001-3.404-.003.116.413.065.232c.237.789.626 1.675 1.319 2.167.191.078.379.138.579.188a.802.802 0 0 1 .421.312c.044.182.021.309 0 .5-.113.167-.18.185-.375.25-.162.006-.323.009-.485.009l-.151.001-.504.001-.361.001-.981.002-.613.001-1.915.003c-.738.001-1.475.002-2.213.005l-1.709.003-1.021.002c-.32.001-.64.002-.961.001l-.353.001h-.481l-.141.002c-.225-.003-.352-.027-.544-.148-.165-.172-.191-.272-.191-.51.1-.221.171-.302.375-.438.084-.014.169-.025.254-.035.487-.105.802-.458 1.073-.858a6.87 6.87 0 0 0 .771-1.776l.051-.188.039-.143h-.143c-1.147.003-2.293.005-3.44.006l-1.664.003-1.451.002-.768.001-.724.001-.264.001c-.908.005-1.785-.072-2.481-.722-.552-.614-.721-1.36-.716-2.168l-.001-.199v-.654l-.001-.471-.001-1.143v-3.86c.001-.769 0-1.537-.002-2.306-.002-.791-.002-1.582-.002-2.373l-.001-1.33v-1.251l-.001-.458c-.004-1.067.001-2.012.782-2.83.405-.331.815-.487 1.313-.625l-.047-.116c-.586-1.468-1.009-2.975-.953-4.572.102-.224.168-.3.375-.438.144-.03.144-.03.314-.052l.191-.026.206-.028C3.824 1.705 5.194 1.319 6.19.52c.196-.137.396-.125.623-.086zm-.856 1.446c-.928.503-1.866.767-2.895.992l-.321.071L2.499 3c.058 1.791.67 3.626 1.75 5.063l.118.157A9.74 9.74 0 0 0 6.124 10l.161.145c.138.117.138.117.273.106 1.673-.824 2.923-2.826 3.533-4.517.258-.763.485-1.609.475-2.417l-.002-.181-.002-.135-.215-.047-.156-.035a65.532 65.532 0 0 0-.428-.094 11.248 11.248 0 0 1-3.03-1.151c-.296-.13-.523.068-.777.21zM1.781 8.687c-.256.369-.299.679-.296 1.117v.169l.001.562v.403l.002 1.094.001 1.143c0 .722.001 1.443.003 2.165l.003 2.464.006 5.07h1.938l.003-.852c.003-.929.007-1.857.012-2.786l.007-1.689.006-1.473.003-.779c0-.245.002-.49.004-.735l.001-.269c0-.483.013-.911.215-1.355l.053-.132c.09-.147.163-.18.322-.243l.122-.052c.388-.142.742-.163 1.152-.162l.209-.002c.226-.002.452-.002.679-.003l.473-.003c.371-.003.742-.004 1.114-.006l1.269-.007c.869-.006 1.738-.01 2.608-.014l-.09-.203-.119-.269-.059-.133a5.565 5.565 0 0 1-.294-3.581c-.375-.064-.756-.121-1.125 0-.299.238-.472.598-.662.922a3.673 3.673 0 0 1-.467.574l-.095.1c-.463.479-.958.909-1.487 1.314l-.128.1c-.396.297-.396.297-.661.303-.689-.214-1.394-.921-1.875-1.438l-.148-.145c-.323-.331-.639-.66-.9-1.042a10.364 10.364 0 0 1-.26-.387 1.47 1.47 0 0 0-.254-.302c-.509-.08-.972.163-1.281.563zm18.907-.562.053.221.069.29.035.146c.285 1.2.083 2.149-.413 3.262l-.068.153-.052.116h.109c.875.004 1.75.008 2.625.014l1.269.007 1.225.007.467.002.655.004h.194c.391.005.72.061 1.081.215l.133.053c.146.09.179.165.242.322l.052.115c.172.45.163.896.162 1.372l.002.277c.002.249.002.499.003.748l.004.784.006 1.482.007 1.688c.006 1.157.01 2.314.014 3.471h1.937c.007-1.766.013-3.531.016-5.297l.007-2.46c.003-.715.005-1.429.006-2.144 0-.378.001-.757.004-1.135.002-.356.003-.713.002-1.069l.002-.392c.035-.932.035-.932-.35-1.754-.353-.329-.689-.516-1.18-.515l-.223-.001-.243.001h-.257l-.696.002-.728.001c-.459 0-.919.001-1.378.003l-1.569.003c-1.076.001-2.151.003-3.227.006zm-3.875 2.062-.011.196-.016.257-.007.129a2.572 2.572 0 0 1-.09.605c-.415.105-.616.058-.992-.152l-.207-.125c-.17-.113-.17-.113-.364-.098a41.36 41.36 0 0 0-.219.414l-.063.117c-.129.25-.186.438-.156.719.063.077.063.077.189.07h.358l.206-.001h.21l.667-.002.451-.001 1.108-.003c.092-.421-.016-.692-.236-1.061a18.194 18.194 0 0 0-.389-.564l-.114-.159c-.127-.174-.127-.174-.261-.341h-.062zM12.5 13.375v2.438h6.938v-2.438H12.5zm-8 3.5v2.5h3v-2.5h-3zm4 0v2.5h7v-2.5h-7zm8 0v2.5h7v-2.5h-7zm8 0v2.5h3v-2.5h-3zm-20 3.5v2.5h6.937v-2.5H4.499zm16.063 0v2.5H27.5v-2.5h-6.937zM1.5 23.875c-.108 1.216-.108 1.216.371 2.14l.122.102.121.105c.309.204.611.231.975.231l.138.001h.457l.331.001.909.001.98.001 1.921.001 1.561.001 4.426.002h.482l3.873.003c1.325.002 2.65.003 3.976.003.744 0 1.488 0 2.232.002l1.901.001.97.001a131.424 131.424 0 0 0 1.209.001c.608.004 1.144.005 1.632-.405l.1-.123.103-.123c.414-.615.213-1.107.213-1.944h-29z" style="fill:var(--color3, #e9dbc5)"/>
      <path fill="#ff7d16" d="M6.835 2.679c.179.076.356.157.532.239.513.232 1.017.429 1.559.58.247.08.445.154.593.374.242.726-.397 1.92-.711 2.574C8.399 7.261 7.606 8.572 6.749 9c-.215.021-.339.021-.529-.087C5.001 7.89 4.187 6.542 3.717 5.032l-.048-.154c-.095-.326-.184-.664-.108-1.002.266-.319.6-.405.988-.52a8.423 8.423 0 0 0 1.418-.575c.317-.161.527-.226.867-.101z" style="fill:var(--color1, #ff7d16)"/>
      <path d="m15.992 24.609.23-.005a.89.89 0 0 1 .528.208c.124.163.126.235.109.441-.047.184-.047.184-.172.371-.23.077-.444.074-.684.074l-.136.002c-.236.001-.421-.002-.618-.139-.131-.168-.125-.256-.113-.473.067-.284.067-.284.238-.402.215-.072.39-.075.617-.078z" style="fill:var(--color4, #000)"/>
    </symbol>
    <symbol id="icon-security" viewBox="0 0 32 32">
      <path fill="#e9dbc5" d="M20.232 2.007a6.312 6.312 0 0 1 1.874 2.864l.038.12c.236.777.248 1.524.243 2.328l-.001.363-.003.948-.002.97-.006 1.899.178.035.235.048.233.047c.931.232 1.676.873 2.167 1.682.189.353.313.667.375 1.063.259-.004.518-.01.777-.016l.264-.005.381-.009.231-.005c.407-.05.711-.202.972-.527.076-.165.132-.326.187-.5a2.461 2.461 0 0 1-1.58-1.207c-.291-.654-.293-1.313-.044-1.98.311-.665.762-1.04 1.438-1.313.721-.184 1.376-.056 2.016.301.479.381.873.825.984 1.449.053.78-.016 1.384-.524 2.012-.274.307-.508.481-.898.621-.218.092-.306.13-.403.348a8.827 8.827 0 0 0-.076.394c-.09.461-.429.835-.787 1.125-.406.251-.75.322-1.226.319h-.122l-.449-.002-1.016-.004v3.812H27l.063-.375a2.491 2.491 0 0 1 1.366-1.332c.657-.212 1.325-.147 1.946.144.557.338.949.808 1.125 1.437a2.443 2.443 0 0 1-.287 1.867c-.375.566-.808.879-1.472 1.039-.643.113-1.227.022-1.784-.324-.457-.328-.785-.729-.957-1.27v-.188h-1.312v3.875c.63-.007.63-.007 1.26-.017.821-.005 1.381.119 1.984.693.339.356.568.762.568 1.261l.103.028c.659.196 1.163.555 1.501 1.158.3.585.444 1.088.291 1.749-.243.722-.667 1.16-1.34 1.51-.537.217-1.195.198-1.739.017-.601-.255-1.081-.674-1.337-1.283-.132-.396-.217-.762-.167-1.178l.016-.137c.1-.599.44-1.06.898-1.444.241-.171.533-.356.836-.356-.259-.454-.48-.728-1-.875a6.285 6.285 0 0 0-.433-.026l-.244-.007-.252-.006-.257-.007-.626-.016.002.123c.006.425.009.85.012 1.275l.005.474.006.686.004.211c0 1.05-.431 1.945-1.158 2.686-.687.642-1.535.993-2.47.992l-.164.001-.543.001-.39.001-1.28.003-.441.001-2.073.003c-.797.001-1.593.002-2.39.005-.616.002-1.233.003-1.849.003l-1.103.002c-.346.001-.693.002-1.039.001l-.38.001c-1.216.008-2.202-.219-3.121-1.083-1.055-1.122-1.092-2.421-1.076-3.873l.003-.441.009-1.071c-.281.005-.563.012-.844.02l-.24.004c-.695.014-.695.014-1.295.334l-.086.111-.09.111c-.082.115-.082.115-.133.295l.153.073.202.099.2.097c.515.282.874.726 1.066 1.282.184.733.067 1.375-.297 2.027-.382.48-.824.871-1.449.984-.761.055-1.408-.027-2.014-.524-.458-.418-.758-.935-.811-1.564-.014-.768.176-1.339.7-1.912.335-.291.7-.448 1.125-.562l.012-.18c.085-.567.418-1.035.863-1.383.465-.285.848-.383 1.392-.381h.236l.298.002.949.004v-3.687l-1.313.062-.129.285c-.322.634-.819.97-1.493 1.193-.707.123-1.365.011-1.956-.396-.565-.466-.831-1.01-.946-1.73-.034-.599.2-1.218.587-1.668.54-.526 1.106-.715 1.847-.71.649.022 1.195.244 1.652.714.284.389.5.763.5 1.25h1.25v-4h-2c-.613-.245-1.152-.517-1.441-1.143a3.344 3.344 0 0 1-.227-.724c-.095-.226-.125-.234-.34-.324l-.152-.058c-.554-.23-.922-.69-1.176-1.219-.213-.582-.183-1.305.057-1.873.348-.601.85-1.031 1.509-1.236.625-.143 1.249-.082 1.809.232.562.367.901.824 1.086 1.47.134.673.048 1.282-.332 1.857-.351.475-.746.729-1.293.955h-.125c.137.35.259.637.563.875.273.111.501.14.794.137l.236-.001.243-.003.248-.002.604-.006.057-.182a3.764 3.764 0 0 1 1.88-2.255c.408-.18.788-.31 1.233-.347l.187-.016.142-.012-.002-.196c-.005-.614-.009-1.228-.011-1.842-.001-.316-.003-.631-.006-.947-.003-.306-.004-.611-.005-.917 0-.115-.001-.231-.003-.346-.014-1.204.16-2.3.714-3.378l.099-.198c.78-1.442 2.146-2.464 3.701-2.937 2.097-.591 4.254-.124 5.932 1.267zm-4.978 3.829c-.301.312-.335.625-.331 1.045v.152l.002.494.001.343c0 .301.002.601.003.902l.003 1.083.006 1.644h2.437l.012-1.775c.001-.362.003-.724.007-1.087.003-.292.004-.584.005-.877l.003-.334c.002-.156.002-.313.002-.469l.003-.138c-.003-.393-.139-.7-.379-1.01-.556-.483-1.236-.482-1.773.025zm-7.388 7.643c-.456.574-.636 1.233-.633 1.951l-.001.163-.001.536-.001.386-.001 1.046-.001.655-.002 2.286-.003 2.127c-.002.61-.002 1.219-.002 1.829 0 .364 0 .727-.002 1.091v1.027l-.001.375c-.006 1.044.105 1.922.832 2.737.54.513 1.176.757 1.908.758l.161.001.534.002.383.002 1.257.004.433.001 1.802.003c.86.001 1.721.003 2.581.007.605.002 1.211.004 1.816.004.361 0 .723.001 1.084.003.34.002.68.002 1.021.002.124 0 .249 0 .373.002.679.006 1.239-.008 1.847-.351l.203-.113c.576-.458 1.018-1.022 1.172-1.762.006-.181.009-.36.009-.54l.001-.167.001-.555.001-.398.003-1.307.001-.45.003-2.115c.001-.813.002-1.627.005-2.44l.003-1.887.002-1.127c.001-.354.002-.707.001-1.061l.001-.388c.006-.977-.083-1.77-.783-2.513-.578-.545-1.238-.822-2.032-.819l-.158-.001-.522-.001-.375-.001-1.018-.001-.636-.001-2.223-.002c-.689 0-1.379-.001-2.068-.003-.593-.002-1.186-.002-1.778-.002-.354 0-.707 0-1.061-.002-.333-.001-.666-.001-.999 0l-.365-.001c-1.109-.006-1.975.181-2.771 1.01z" style="fill:var(--color3, #e9dbc5)"/>
      <path fill="#ff7d16" d="M18.531 19.586c.328.059.439.225.629.487.223.323.422.613.414 1.017l-.001.136c-.011.149-.011.149-.041.315a5.11 5.11 0 0 0-.047.654c-.062 2.375-.461 5.071-1.485 7.242-.168.141-.253.189-.473.184-.196-.075-.282-.135-.402-.309-.034-.405.053-.708.191-1.086a21.273 21.273 0 0 0 1.168-6.074l.013-.242c.022-.534.01-.963-.353-1.387a.81.81 0 0 1-.184-.406c.072-.331.242-.473.57-.531z" style="fill:var(--color1, #ff7d16)"/>
      <path fill="#ff7d16" d="M17.5 21.062c.489.604.155 1.96.079 2.676-.179 1.62-.618 3.197-1.122 4.742l-.072.223-.069.207-.061.185c-.068.157-.117.241-.254.342-.285.032-.431.034-.688-.094-.146-.182-.147-.291-.141-.519.027-.233.114-.434.203-.649.78-2.007 1.172-4.175 1.223-6.325l.005-.176a8.44 8.44 0 0 1 .004-.157c.026-.204.084-.345.245-.475a.961.961 0 0 1 .648.02zM18.875 17.437c1.053.407 1.81 1.191 2.281 2.207.531 1.298.384 2.693.262 4.062l-.011.13c-.077.874-.077.874-.282 1.225-.218.145-.306.151-.562.125-.145-.07-.145-.07-.25-.187a1.889 1.889 0 0 1-.028-.726l.026-.206.029-.22c.287-2.287.287-2.287-.555-4.345-.097-.128-.097-.128-.157-.262-.084-.149-.16-.173-.315-.241a14.863 14.863 0 0 1-.301-.211 5.732 5.732 0 0 0-.578-.371c-.184-.105-.184-.105-.246-.23-.036-.443-.036-.443.098-.656.209-.129.356-.148.59-.094zM13.625 20.313c.174.108.187.185.234.387.014.208-.004.386-.031.591-.023.221-.026.442-.031.664-.043 1.816-.424 3.59-1.032 5.3l-.071.201c-.196.529-.196.529-.382.671-.285.032-.431.034-.688-.094-.14-.174-.17-.286-.156-.508a2.3 2.3 0 0 1 .174-.487c.178-.416.305-.838.424-1.275l.065-.24c.328-1.229.463-2.432.543-3.699.018-.275.04-.549.068-.823l.023-.242c.054-.224.116-.306.297-.445.222-.074.337-.056.562 0z" style="fill:var(--color1, #ff7d16)"/>
      <path fill="#ff7d16" d="M18.128 15.28c1.224.187 2.311.73 3.247 1.533l.184.146c.203.17.365.36.527.569l.089.114c.296.388.535.802.762 1.234l.076.134c.087.207.047.405-.014.616-.139.164-.222.183-.434.215-.244-.035-.326-.108-.504-.277a6.011 6.011 0 0 1-.234-.441 5.22 5.22 0 0 0-.828-1.184l-.123-.138c-.845-.902-2.195-1.455-3.417-1.522l-.209-.004c-.273-.033-.435-.144-.626-.336-.026-.235-.042-.379.098-.575.356-.264.979-.138 1.405-.083zM15.937 13.437c.156.129.156.129.25.313.014.178.004.334-.062.5-.195.194-.4.234-.664.293-1.734.427-3.256 1.554-4.285 2.996-.113.148-.113.148-.238.211-.25.024-.397.021-.621-.098-.129-.152-.129-.152-.155-.354.031-.283.137-.447.307-.666l.086-.115c.374-.494.773-.943 1.258-1.33l.189-.154c.943-.74 2.669-1.919 3.936-1.596zM10.188 18.062c.184.121.184.121.313.312.038.32-.078.617-.184.914-.258.737-.271 1.532-.309 2.305-.154 2.867-.154 2.867-.684 3.355-.221.125-.325.157-.574.113-.145-.063-.145-.063-.25-.188-.099-.443-.016-.813.086-1.25.13-.577.227-1.124.245-1.716.032-1.022.143-1.995.443-2.975l.053-.177c.143-.438.339-.792.861-.694zM23.194 21.018c.165.062.214.147.306.295.023.137.023.137.023.286v.17l-.003.184-.002.195c-.032 1.745-.296 3.493-.677 5.196l-.033.155c-.074.308-.172.489-.432.689-.189.057-.297.029-.5 0-.156-.098-.156-.098-.25-.25a2.212 2.212 0 0 1 .105-.828c.466-1.638.654-3.369.683-5.068l.004-.201.002-.177a.98.98 0 0 1 .244-.593c.191-.091.323-.075.53-.053zM15.5 21.125c.136.096.176.165.25.313.115 2.028-.297 4.597-1.188 6.437-.113.125-.113.125-.25.188a.848.848 0 0 1-.523-.16c-.143-.214-.128-.405-.102-.652.054-.223.126-.439.199-.656a16.08 16.08 0 0 0 .772-4.63c.008-.303.05-.513.217-.776.198-.099.409-.088.625-.063zM17.07 17.168l.192-.007c.221.034.29.103.425.277.073.23.083.33-.02.551-.145.188-.252.208-.478.238-.829.116-1.48.231-2.127.799-.125.101-.125.101-.25.101l-.052.111c-.153.292-.345.524-.64.674-.261.039-.392-.033-.609-.168a.735.735 0 0 1-.111-.469c.164-.654.832-1.146 1.37-1.491a5.274 5.274 0 0 1 2.3-.614zM11.75 19.938c.107.074.107.074.187.188.02.161.02.161.015.356l-.005.22c-.017.407-.038.814-.065 1.22l-.009.132c-.127 1.948-.127 1.948-.374 2.258a1.157 1.157 0 0 1-.563.063.868.868 0 0 1-.312-.375c.004-.128.013-.255.023-.383l.017-.208c.015-.148.033-.296.054-.443.06-.467.053-.941.063-1.411.033-1.208.033-1.208.28-1.532.25-.172.389-.149.687-.086zM15.969 15.535c.132.214.133.342.094.59-.214.333-.542.409-.903.537a5.722 5.722 0 0 0-.843.44c-.226.1-.385.107-.629.085-.152-.094-.152-.094-.25-.25-.07-.396-.07-.396.068-.6.495-.468 1.801-1.216 2.464-.802zM12.5 17.812c.152.098.152.098.25.25.039.379-.059.62-.23.945l-.064.131a2.04 2.04 0 0 1-.518.674c-.237.044-.342.017-.555-.094-.144-.17-.185-.274-.172-.497.119-.487.397-.974.727-1.347.193-.097.35-.081.563-.062zM16.875 19.188c.164.129.164.129.25.312.005.258-.013.385-.191.574a5.743 5.743 0 0 1-.564.3c-.134.066-.134.066-.284.204-.148.109-.148.109-.336.145-.259-.048-.347-.136-.5-.348-.047-.211-.047-.211 0-.437.332-.495 1.02-.901 1.625-.75zM20.375 27.25c.175.123.238.207.296.413.021.274-.04.487-.121.747l-.04.141c-.084.278-.174.491-.386.699-.246.04-.376.041-.586-.098a.912.912 0 0 1-.138-.728c.042-.149.09-.294.142-.44l.049-.152c.143-.419.299-.653.783-.583zM10.813 25.438c.15.099.183.175.246.344.006.327-.095.618-.246.906-.156.144-.225.184-.438.215-.188-.027-.188-.027-.332-.125-.143-.207-.164-.338-.168-.59.064-.295.135-.553.375-.75.222-.074.337-.056.563 0z" style="fill:var(--color1, #ff7d16)"/>
    </symbol>
    <symbol id="icon-student" viewBox="0 0 33 32">
      <path fill="#ff7d16" d="m18.864 2.581.206.1.653.319.213.104c.942.462 1.881.93 2.82 1.398.479.239.958.476 1.438.714l1.023.508.606.301.673.335.199.097c.515.26 1.014.588 1.302 1.104l.083.145c.208.434.303.793.299 1.277l-.001.166c-.019.7-.282 1.29-.78 1.787a5.198 5.198 0 0 1-1.068.671l-.158.078-.493.242-.336.167-.82.404.032.1.146.458.05.157c.524 1.65.609 3.481.146 5.159l-.033.126c-.347 1.266-1.012 2.369-1.842 3.374l-.25.313.189.021c.251.036.484.111.721.201l.131.05a6.47 6.47 0 0 1 1.896 1.165l.153.126c1.243 1.055 2.123 2.683 2.284 4.312.016.23.024.46.027.691l.004.169c-.001.349-.049.55-.282.827-.239.227-.43.269-.75.281-.32-.012-.511-.054-.75-.281-.279-.332-.303-.643-.344-1.066-.158-1.376-.666-2.539-1.711-3.469a5.263 5.263 0 0 0-3.133-1.152l-.215-.019c-.516-.028-.867.053-1.321.273a6.583 6.583 0 0 1-1.073.39l-.159.046c-.753.208-1.486.273-2.263.271h-.142c-.758-.003-1.471-.058-2.202-.273l-.149-.044c-.461-.138-.903-.288-1.331-.511-.789-.374-2.074-.111-2.877.16-1.261.503-2.232 1.332-2.813 2.58-.27.64-.376 1.247-.441 1.936-.049.461-.141.702-.482 1.026-.323.15-.619.149-.969.102-.31-.144-.463-.327-.625-.625a2.988 2.988 0 0 1-.031-.605l.003-.175c.056-1.897.962-3.598 2.326-4.887.788-.678 2.003-1.52 3.078-1.52a16.15 16.15 0 0 1-.103-.122c-1.761-2.11-2.414-4.399-2.272-7.128.06-.649.249-1.261.447-1.879l.052-.164.126-.394-.209-.102-.775-.381-.334-.164c-.986-.481-1.83-.924-2.25-1.998-.169-.674-.157-1.444.159-2.071.488-.805 1.166-1.182 1.994-1.594l.247-.124c.221-.112.443-.222.665-.333l.558-.28 1.319-.66 1.353-.678c.389-.196.778-.391 1.168-.585l.695-.348c.218-.11.436-.219.655-.327l.238-.119c1.765-.893 3.616-1.033 5.41-.154zm-4.956 2.254-.235.117-.631.315-.395.197-1.381.689-1.285.64-1.107.552-.659.329c-.207.102-.413.205-.619.309l-.335.166c-.474.238-.474.238-.851.602-.048.126-.048.126-.039.25l-.002.121c.107.331.41.481.7.634l.435.218.24.121.652.325.684.342 1.15.574 1.325.662 1.279.639.542.271.641.319.233.117c.678.341 1.329.641 2.099.626l.151.003c.745-.005 1.409-.358 2.061-.686l.243-.12.651-.325.546-.273 1.287-.644c.442-.221.883-.442 1.326-.662l1.142-.57.68-.34.639-.32.234-.117c.544-.26.544-.26.978-.666.048-.126.048-.126.039-.25l.002-.121c-.082-.253-.302-.409-.522-.545l-.184-.092-.212-.107-.231-.114-.245-.123-.663-.331-.696-.348-1.169-.583-1.348-.674-1.3-.65-.552-.276-.651-.325a26.388 26.388 0 0 1-.238-.119c-1.654-.831-2.796-.562-4.408.243zm-4.06 8.603-.148.457-.042.127c-.208.652-.27 1.28-.267 1.963l.001.234c.007.555.049 1.059.206 1.594l.065.231c.543 1.785 1.816 3.255 3.445 4.145 1.623.864 3.51 1.02 5.27.514 1.039-.325 1.967-.929 2.783-1.64l.116-.1c.894-.83 1.498-1.989 1.821-3.15l.061-.206c.342-1.375.172-2.855-.311-4.169-.341.1-.646.253-.961.414l-.157.08-.382.194-.001.121a259.205 259.205 0 0 1-.016 1.712c-.001.223-.004.446-.007.669v.21c-.007.385-.028.621-.288.913-.326.254-.666.236-1.063.188-.287-.136-.426-.279-.563-.563a4.83 4.83 0 0 1-.032-.509l-.003-.146-.008-.459-.006-.312-.013-.762a6.388 6.388 0 0 0-.722.282c-1.195.549-2.695.738-3.958.271-.53-.213-1.038-.472-1.548-.729l-1.116-.56-1.033-.519-.385-.194-.182-.092-.167-.084-.146-.074c-.116-.06-.116-.06-.243-.052z" style="fill:var(--color1, #ff7d16)"/>
    </symbol>
    <symbol id="icon-training" viewBox="0 0 33 32">
      <path fill="#ff7d16" d="M23.41 11c.257.106.398.258.559.48.121.377.143.661-.021 1.03-.13.232-.268.455-.412.678l-.155.244c-.113.176-.227.352-.342.527-.208.318-.412.639-.616.96l-.111.175-.225.355-.55.864-.219.344-.547.86-.217.341-.573.899-.12.189-.229.358-.104.163-.091.143-.088.14-.105.165c-.095.14-.095.14-.075.29l.04.139.038.139.04.143c.181.771.075 1.62-.34 2.299-.635.905-1.546 1.309-2.504 1.8-.454.233-.904.471-1.351.718-.561.309-1.127.606-1.696.9a35.03 35.03 0 0 0-1.097.59c-.137.069-.137.069-.262.069l.003.235a250.01 250.01 0 0 1 .011 1.24 96.849 96.849 0 0 1 .007.707c0 .32-.03.54-.209.818-.256.243-.482.359-.832.398a1.4 1.4 0 0 1-.73-.273c-.286-.36-.322-.641-.319-1.087v-.155l.002-.489.001-.332.003-.813-.149-.034c-1.077-.255-1.811-.791-2.413-1.716a27.94 27.94 0 0 1-.436-.747l-.191-.335c-.127-.222-.25-.445-.373-.668l-.064-.117c-.063-.116-.124-.232-.186-.349l-.109-.206a1.15 1.15 0 0 1-.037-.784c.18-.355.385-.54.771-.669.366-.036.641.037.938.25.177.207.317.418.448.656l.11.198.114.208c.573 1.208.573 1.208 1.52 2.078l.123.06c.483.196.904.111 1.373-.075.213-.104.419-.219.625-.336l.365-.203.191-.106c.322-.176.649-.344.975-.512a69.492 69.492 0 0 0 1.661-.886 30.435 30.435 0 0 1 1.309-.683c.27-.138.461-.258.624-.524a1.15 1.15 0 0 0-.008-.77c-.182-.262-.331-.39-.641-.477-.438-.008-.856.275-1.242.469l-.166.083c-.463.233-.922.473-1.38.716-.416.22-.833.437-1.251.653l-.173.09-.167.087c-.156.083-.308.172-.46.262-.337.188-.635.195-1.013.136-.279-.134-.452-.307-.625-.563a1.778 1.778 0 0 1-.074-.533c-.024-1.013-.151-1.871-.852-2.656-.666-.632-1.454-.84-2.344-.827-.309.021-.57.086-.856.203l-.127.048c-.652.283-1.172.858-1.449 1.504-.15.399-.244.757-.245 1.185l-.001.22v.239l-.001.253-.002.544-.003.861a999.62 999.62 0 0 0-.009 2.449l-.005 1.353-.002.716c0 .224-.001.449-.003.673v.364c-.006.67-.006.67-.214.965-.256.243-.482.359-.832.398a1.397 1.397 0 0 1-.73-.273c-.24-.301-.32-.528-.321-.908l-.001-.218v-.239l-.001-.252-.002-.685-.001-.429-.002-1.346-.003-1.548-.002-1.2c0-.238 0-.477-.002-.715-.008-1.811.117-3.38 1.404-4.78 1.052-1.037 2.334-1.507 3.794-1.507 1.337.016 2.557.566 3.508 1.501.562.58 1.24 1.534 1.256 2.37l-.003.145.99-.507.335-.172.487-.25.162-.083c.247-.127.493-.255.737-.388l.127-.069.333-.184c.715-.348 1.537-.372 2.289-.126l.227.09.044-.127c.103-.235.237-.437.378-.65l.187-.286.1-.153a88.963 88.963 0 0 0 .64-1.001l.225-.355.55-.864.219-.344.438-.688.11-.172.218-.342.566-.892.118-.187.221-.351c.859-1.358.859-1.358 1.8-1.213z" style="fill:var(--color1, #ff7d16)"/>
      <path fill="#ff7d16" d="m12.239 1.592.492-.001h2.584c.879-.001 1.757 0 2.636.001h2.256c.876-.001 1.751-.002 2.627-.001H23.254l.967-.001c.435-.001.87 0 1.305.001h.477c1.428-.004 2.644.121 3.719 1.158.778.895 1.029 1.908 1.025 3.073l.001.256.001.688.001.578v1.365c-.001.467 0 .933.002 1.4.001.403.002.806.001 1.209l.001.719c.006 1.474-.008 2.758-1.082 3.887l-.138.138-.107.109c-.783.735-1.789.862-2.811.86-.161 0-.322.003-.483.005h-.311l-.144.003c-.354-.005-.574-.11-.831-.353-.223-.309-.239-.631-.187-1 .091-.27.252-.482.494-.637.307-.119.658-.086.983-.086 1.113.006 1.113.006 2.047-.529.302-.366.421-.75.423-1.22l.001-.214v-.234l.001-.247.001-.67.001-.419.002-1.312.003-1.512.002-1.171c0-.233 0-.466.002-.698l.001-.78.002-.232c-.003-.57-.076-1.096-.462-1.54-.398-.287-.737-.445-1.231-.446l-.174-.001h-.19l-.203-.001-.675-.001-.483-.001-1.314-.002-.821-.001-2.273-.002h-.737l-2.373-.003-2.438-.002c-.456 0-.912 0-1.368-.002l-1.287-.001-.472-.001h-.645l-.188-.002c-.484.003-.959.076-1.333.407l-.116.098c-.39.492-.409 1.023-.435 1.628-.029.477-.109.706-.46 1.04-.323.15-.619.149-.969.102-.29-.135-.505-.325-.625-.625a5.717 5.717 0 0 1-.031-.848l-.003-.227c.004-1.007.35-1.862 1.038-2.597 1.125-1.062 2.414-1.116 3.887-1.11zM9.365 9.09c.727.608 1.145 1.394 1.342 2.316.079 1.111-.115 2.154-.851 3.024-.664.739-1.56 1.209-2.557 1.272-1.135.03-2.107-.275-2.95-1.068-.812-.863-1.042-1.834-1.021-2.982.035-.85.415-1.647.995-2.265.462-.424.985-.765 1.587-.95l.126-.042c1.127-.317 2.416-.015 3.328.695zm-3.58 1.785c-.366.512-.425.933-.375 1.562.144.504.515.796.946 1.062.347.189.771.187 1.146.083.486-.201.828-.482 1.05-.962.18-.478.139-.884-.063-1.346-.213-.404-.484-.641-.891-.837a1.778 1.778 0 0 0-1.813.438z" style="fill:var(--color1, #ff7d16)"/>
      <path fill="#ff7d16" d="m13.762 6.968.142-.001c.156-.001.312 0 .468.001l.336-.001h1.867l1.604.001h1.854l1.592-.001h.951c.298-.001.596 0 .894.001h.328c.149-.001.299 0 .448.001l.131-.002c.309.005.482.093.721.283.227.239.269.43.281.75-.012.32-.054.511-.281.75-.283.225-.498.286-.851.282l-.142.001h-.468l-.336.002-.912.001-.761.001h-1.796c-.617-.001-1.235 0-1.852.002-.53.002-1.061.002-1.591.002l-.95.001c-.298.001-.596.001-.893-.001l-.328.001c-.149.001-.299 0-.448-.001l-.13.002c-.34-.007-.549-.13-.792-.354-.223-.309-.239-.631-.187-1 .176-.523.575-.726 1.102-.719zM13.883 10.967l.179-.002h.584l.407-.001c.284-.001.569 0 .853.001.364.001.728 0 1.092-.003l.841-.001.402-.001c.188-.001.375 0 .563.001l.167-.002c.373.006.606.093.876.354.193.268.224.519.214.842a1.172 1.172 0 0 1-.464.757c-.262.124-.491.116-.778.115l-.179.002c-.195.001-.39.002-.585.001l-.407.001-.854.001c-.364 0-.729.002-1.093.004-.281.002-.561.002-.842.002l-.403.002h-.564a9.08 9.08 0 0 1-.167.002c-.39-.005-.582-.096-.877-.353-.223-.309-.239-.631-.187-1 .201-.6.654-.725 1.223-.721z" style="fill:var(--color1, #ff7d16)"/>
    </symbol>
    <symbol id="icon-user" viewBox="0 0 32 32">
      <path fill="#e9dbc5" d="m8.88.609.26-.001h4.711l3.3.001h2.829l3.289-.001h4.667l.367-.001c.891.004 1.735.15 2.409.783.532.585.856 1.284.857 2.081l.001.21v.23l.001.245.001.674.001.727.001 1.589.001.993.002 2.749V11.78l.003 2.871a2898.87 2898.87 0 0 1 .004 4.604l.001 1.41.001.719v.78l.002.228c-.005.778-.173 1.484-.721 2.061-.66.609-.66.609-1.053.609v2.313l.563.125c.537.28.897.752 1.082 1.319.147.613.014 1.133-.273 1.683-.308.487-.789.708-1.333.835-.447.074-.898.063-1.35.061l-.339.001h-.927l-1.002.001h-4.243c-1.441.001-2.881 0-4.322-.001h-3.706l-4.306.001h-.687l-1.591.001c-.647.001-1.293 0-1.94-.001h-.989c-.302.001-.604 0-.906-.001h-.327c-.809.003-1.595.002-2.214-.587-.367-.375-.591-.825-.627-1.351.007-.614.191-1.116.604-1.575.321-.298.706-.511 1.148-.511v-.109c-.007-2.14-.012-4.281-.016-6.421l-.001-.772v-.155c-.001-.828-.004-1.656-.007-2.485-.003-.85-.005-1.701-.005-2.551 0-.524-.002-1.049-.004-1.573-.002-.36-.002-.72-.002-1.08 0-.207 0-.415-.002-.622-.002-.226-.001-.451 0-.677l-.003-.196c.007-.68.249-1.251.721-1.74.566-.512 1.168-.65 1.917-.631a387.223 387.223 0 0 0 .652.012l-.002-.204c-.005-.636-.009-1.272-.011-1.909l-.006-.981c-.003-.316-.004-.632-.005-.948l-.003-.36c-.011-1.015.098-1.754.812-2.52.81-.748 1.649-.848 2.72-.844zM7.856 2.695c-.275.304-.329.629-.315 1.024.049.352.199.583.447.832.353.242.643.37 1.074.324.373-.099.684-.24.901-.573.194-.349.307-.654.224-1.052-.128-.375-.293-.671-.635-.882-.652-.318-1.193-.147-1.696.327zm3.218-.172-.137.164-.141.164c-.228.309-.207.654-.172 1.023.11.389.355.654.687.875.385.177.729.167 1.125.031.404-.174.655-.453.84-.848.083-.431.03-.715-.176-1.098-.254-.372-.599-.564-1.039-.648-.381 0-.695.088-.988.336zm3.051.29a1.4 1.4 0 0 0-.25.875c.09.386.247.669.552.922.396.228.744.294 1.192.291l.163.001h.538l.387.002c.35.001.699.002 1.049.001l.876.001 2.068.001c.71 0 1.421.001 2.131.003.611.002 1.221.003 1.832.002.364 0 .729 0 1.093.002h1.028l.377.001c.972.015.972.015 1.812-.436.226-.236.352-.534.401-.854-.023-.467-.18-.805-.512-1.137-.403-.26-.821-.329-1.293-.325l-.16-.001h-.527l-.38-.001h-2.107l-1.81.001h-4.96c-.336-.001-.672 0-1.008.001h-.369c-.168-.001-.337 0-.505.001l-.146-.001c-.604.006-1.063.203-1.471.65zM6.375 6.5l-.016 8.18-.007 2.583-.001 1.528c0 .34-.001.681-.003 1.021-.002.393-.002.785-.002 1.178l-.001.602v.646l-.002.188c.005.591.165 1.063.59 1.481.459.326.901.306 1.446.304l.27.001.742.001.8.002c.523.001 1.045.002 1.568.001l1.274.001h.552l3.456.001c1.054 0 2.107.001 3.161.003l3.246.003c.607 0 1.215 0 1.822.002.517.001 1.034.002 1.551 0 .264-.001.528-.001.791.001.242.001.483.001.725-.001l.262.001c.572.005 1.055-.051 1.5-.441.388-.429.427-.856.422-1.406v-.206l-.002-.683v-.498l-.002-1.198-.002-1.386-.006-3.658-.012-8.254H6.372zM3.483 9.806c-.32.391-.322.78-.318 1.265l-.001.211.002.698v.501l.002 1.078c.002.519.002 1.039.002 1.558 0 .843.002 1.686.003 2.528l.004 2.456v.153l.001.76.009 6.3h.154c1.233.004 2.466.008 3.699.014l1.789.007c.52.001 1.039.004 1.559.006.275.001.55.003.826.003a100.626 100.626 0 0 1 1.062.005l.389.002.22.001c.177.024.177.024.292.112.263.361.155.498.198 1.1h5.25l.062-.875c.135-.208.135-.208.313-.312.192-.039.192-.039.41-.04l.122-.002h.404l.29-.002c.262-.002.524-.002.787-.001l.823-.003 1.557-.003a1477.857 1477.857 0 0 1 5.42-.013l.031-.504.009-.139c.019-.324.024-.647.023-.972v-.131l-.001-.317h-.135c-2.649-.004-5.298-.008-7.948-.014l-.955-.002h-.192l-3.076-.005c-1.052-.001-2.105-.003-3.157-.006l-1.947-.003c-.445 0-.891-.001-1.336-.003l-.77-.001c-.235 0-.471 0-.706-.002h-.374c-.743-.006-1.379-.111-1.966-.588l-.121-.097c-.512-.459-.712-1.13-.766-1.799a13.088 13.088 0 0 1-.006-.443l-.001-.169-.001-.556-.002-.401c-.002-.362-.003-.723-.003-1.085l-.004-1.135-.007-2.148c-.002-.815-.005-1.631-.009-2.446l-.017-5.031-.449-.004-.128-.002c-.557-.003-.897.138-1.315.499zm.435 19.214c-.125.167-.125.167-.114.395.05.216.05.216.209.316.19.09.312.106.521.107l.198.001c.067.001.135-.001.205-.002l.205.002.198-.001.179-.001A.92.92 0 0 0 6 29.625c.084-.21.084-.21.063-.438-.103-.164-.147-.224-.313-.312a4.246 4.246 0 0 0-.813-.039l-.223-.004c-.432-.011-.432-.011-.796.187z" style="fill:var(--color3, #e9dbc5)"/>
      <path fill="#ff7d16" d="M15.26 9.1c.392.353.592.874.622 1.397.004.148.006.295.008.443l.001.166.002.347.004.351c.013.834-.018 1.559-.503 2.271l-.114.171c-.093.13-.093.13-.156.193a12.38 12.38 0 0 0-.035.473l-.008.135-.019.33.201.02c.364.046.719.13 1.076.214l.205.045c.424.1.776.235 1.143.47l.168.105c.53.53.664 1.13.666 1.852l.001.207.001.434c0 .219.003.439.005.658l.001.423.003.196c-.005.737-.231 1.379-.719 1.936-.693.683-1.517.822-2.448.822l-.164.001-.533.001-.374.001h-.783l-.997.002-.773.001-.367.001c-1.126.004-2.127.004-2.995-.813-.559-.611-.719-1.316-.717-2.124l-.001-.207v-.43c0-.218-.001-.436-.003-.653v-.421l-.002-.195c.006-.617.158-1.178.595-1.63.512-.432 1.186-.543 1.821-.688l.29-.068c.234-.055.468-.109.703-.162.039-.482.039-.482-.098-.931l-.132-.127c-.534-.585-.657-1.293-.642-2.056l.004-.366c.002-.191.005-.383.009-.574l.007-.556.004-.171c.001-.337-.047-.57-.217-.863-.173-.303-.157-.642-.123-.98.094-.168.094-.168.25-.25.233-.018.417-.02.643.034.216.036.412.021.63.005l.24-.017c.15-.014.301-.032.45-.055 1.096-.146 2.259-.041 3.172.632zM11.25 12c-.068.648-.006 1.14.375 1.687.311.375.755.582 1.233.649.542.023.987-.133 1.411-.469.335-.314.541-.726.605-1.18a12.1 12.1 0 0 0 .004-.426l-.002-.22-.002-.167c-.478-.205-.94-.203-1.452-.206l-.265-.004c-1.017-.038-1.017-.038-1.908.335zm.875 3.187c-.047.282.021.432.178.658.075.102.151.203.229.303l.117.157.289.382c.249-.083.34-.224.505-.422.079-.092.161-.183.246-.27.265-.267.265-.267.339-.621l-.027-.188-.234.031a6.726 6.726 0 0 1-1.641-.031zm2.315 1.27a2.137 2.137 0 0 0-.422.596c-.087.144-.183.231-.306.344-.314.355-.268.751-.255 1.201l.002.263c.002.229.006.458.011.687.004.234.006.468.009.703.005.458.012.917.021 1.375.38.008.76.013 1.141.017l.387.006c.187.004.373.006.559.007l.173.005c.493 0 .89-.157 1.267-.477.427-.53.482-1.001.488-1.668l.001-.176.002-.367.004-.374c.003-.181.004-.362.004-.543l.003-.168c-.001-.369-.057-.588-.28-.887-.53-.415-2.214-.94-2.81-.543zm-4.039.169c-.138.034-.275.066-.413.098-.673.148-.673.148-1.175.589-.139.318-.144.61-.144.95l-.001.166v.347c0 .175-.001.351-.003.526-.022 1.008-.022 1.008.433 1.877a6.7 6.7 0 0 0 .114.132c.625.479 1.329.405 2.078.391l.353-.003.858-.012c.023-.482.041-.965.052-1.448.005-.224.012-.449.024-.673.053-1.057.008-1.848-.701-2.698-.487-.537-.811-.409-1.474-.244z" style="fill:var(--color1, #ff7d16)"/>
      <path fill="#e9dbc5" d="M25.336 8.203c.314.206.499.507.673.834l.111.208.118.224.124.234c.314.591.621 1.185.927 1.78.284.552.576 1.099.875 1.643.235.429.465.86.691 1.293l.098.187.09.173.08.153c.182.373.196.817.086 1.216a1.57 1.57 0 0 1-.791.794c-.171.06-.297.075-.478.075l-.184.002h-.2l-.212.001-.694.002-.483.001-1.012.001-1.167.003c-.375.002-.75.002-1.126.002l-.478.002h-.669l-.198.002c-.459-.004-.788-.084-1.145-.392a9.817 9.817 0 0 1-.084-.106l-.087-.105c-.242-.371-.251-.75-.202-1.18.073-.232.179-.436.297-.648l.094-.179c.097-.183.196-.365.296-.547l.175-.322.268-.489c.29-.527.564-1.06.838-1.595a81.83 81.83 0 0 1 .949-1.809l.086-.159c.697-1.268.697-1.268 1.293-1.471a1.39 1.39 0 0 1 1.038.173zm-1.086 2.422c-.098.196-.075.405-.077.621l-.002.149-.002.312c-.001.159-.004.318-.007.477l-.002.303-.003.144c.001.22.012.344.145.523.184.13.289.132.51.095.144-.092.144-.092.25-.25.026-.177.037-.329.035-.506l.001-.148-.001-.309c-.001-.157.001-.315.004-.472v-.301l.003-.142c-.004-.249-.034-.362-.189-.56-.271-.204-.406-.114-.666.063zm-.062 3.688c-.039.181-.039.181-.031.375l-.002.195c.041.221.107.294.283.43.187.042.187.042.375 0 .176-.135.242-.209.283-.43l-.002-.195.002-.195c-.041-.221-.107-.294-.283-.43-.31-.052-.434.007-.625.25zM21.118 18.587l.248-.001c.224-.001.448 0 .672.002l.704.001 1.182.003c.455.002.911.003 1.366.002a576.409 576.409 0 0 1 2.655.005l.234-.001.215.002.186.001c.2.028.319.093.482.211.097.193.081.35.063.563a.983.983 0 0 1-.375.312c-.11.006-.221.008-.331.009l-.213.001h-.234l-.246.001-.669.002-.418.001-1.308.002c-.503 0-1.007.001-1.51.003l-1.167.002c-.232 0-.465 0-.697.002l-.778.001-.233.002-.214-.001h-.186c-.2-.028-.318-.093-.481-.211-.098-.196-.084-.346-.062-.563.269-.422.656-.356 1.118-.351zM20.857 21.365l.126-.001.411-.002.287-.001.601-.001c.256 0 .513-.002.769-.004a116.824 116.824 0 0 1 .875-.004l.397-.001.228-.001a.911.911 0 0 1 .512.21.89.89 0 0 1 .062.625c-.245.246-.414.282-.756.283l-.132.002h-.429l-.299.001c-.209.001-.417 0-.626-.001-.267-.001-.534 0-.801.003a127.103 127.103 0 0 1-.912.002c-.138.001-.275 0-.413-.001h-.237c-.263-.05-.356-.143-.519-.352-.033-.236-.033-.374.078-.586.22-.204.491-.172.779-.174zM14.729 18.592l.24-.001.25.003.25-.003.24.001.219.001c.236.039.341.115.509.282.037.141.037.141.031.285l-.002.145c-.036.163-.086.219-.217.32-.329.11-.679.077-1.023.078l-.233.004-.225.001-.206.002a.88.88 0 0 1-.562-.272c-.017-.12-.017-.12-.023-.269a120.73 120.73 0 0 1-.009-.148c.085-.375.427-.427.761-.428z" style="fill:var(--color3, #e9dbc5)"/>
    </symbol>
    <symbol id="icon-virus" viewBox="0 0 32 32">
      <path fill="#e9dbc5" d="M26.063 1.91c.127.112.251.225.375.34l.128.113c1.115 1.031 1.668 2.611 1.76 4.092.007.437-.028.852-.095 1.284l-.022.147a5.497 5.497 0 0 1-.271.99l.203.094c.804.38 1.284.728 1.609 1.594.113.436.143.854.14 1.303v.198l-.001.652v.47l-.001 1.008-.002 1.458-.002 2.366-.003 2.297v.854c-.001 1.965-.004 3.929-.006 5.894l.178.026c.499.092.884.497 1.172.895.305.493.408 1.05.309 1.62-.155.652-.49 1.131-1.034 1.522-.405.242-.737.322-1.208.321h-.611l-.34.001-.935.001-1.008.001-2.435.002-1.146.001-3.81.002H17.77l-3.983.004c-1.363.002-2.725.003-4.088.003l-2.296.002c-.652.001-1.303.002-1.955.001l-.997.001h-.913l-.33.001c-.888.006-1.524-.133-2.186-.756-.405-.431-.61-1.034-.599-1.624.076-.676.339-1.22.859-1.656.288-.214.489-.318.846-.371v-.246c-.003-1.929-.005-3.857-.006-5.786v-.856l-.003-2.295a1850.248 1850.248 0 0 1-.004-3.809l-.001-1.116-.001-.457v-.625l-.001-.181c.004-.831.173-1.53.751-2.153.556-.517 1.238-.683 1.979-.681l.151-.001.495-.001.357-.002c.322-.002.643-.003.965-.003l1.01-.004 1.91-.007 2.176-.009 4.474-.017-.053-.169-.069-.222-.068-.22c-.456-1.535-.129-3.2.613-4.587.796-1.409 2.136-2.397 3.67-2.866 1.894-.519 4.086-.124 5.595 1.162zm-4.313.59a1.154 1.154 0 0 0-.066.449l.004.238-.103.023c-.503.138-.854.405-1.138.844-.292.546-.388.999-.245 1.603a2.207 2.207 0 0 0 1.07 1.3c.296.13.58.187.9.23.4.054.609.134.879.441.169.276.174.558.137.871-.084.247-.222.413-.418.586-.347.17-.667.215-1.039.094-.315-.137-.468-.374-.605-.68a7.957 7.957 0 0 1-.084-.43.547.547 0 0 0-.229-.32c-.209-.027-.332-.022-.52.074-.133.143-.142.234-.168.426.033.596.314 1.098.75 1.496.249.202.482.379.813.379l-.016.23a.68.68 0 0 0 .125.453c.17.161.17.161.391.191a.889.889 0 0 0 .437-.375c.015-.129.015-.129.008-.262l-.008-.238.139-.021c.46-.11.852-.468 1.111-.854.268-.46.367-.942.277-1.469a2.217 2.217 0 0 0-.902-1.281l-.102-.072c-.296-.176-.599-.215-.934-.264-.36-.055-.639-.101-.896-.381-.217-.303-.234-.606-.193-.97.114-.33.288-.487.563-.688a1.393 1.393 0 0 1 1.02.031c.275.155.382.363.48.656.021.088.04.177.059.266.049.239.049.239.211.395.16.104.16.104.332.086.163-.064.236-.102.336-.246.132-.426.001-.836-.191-1.223-.236-.397-.568-.744-1.023-.863l-.223-.102a1.798 1.798 0 0 1-.091-.477c-.022-.157-.022-.157-.152-.26-.273-.157-.474-.101-.694.112zM3.456 10.495c-.257.414-.295.743-.291 1.222v.198l.002.654v.469l.002 1.01c.002.487.002.973.002 1.46 0 .79.002 1.579.003 2.369l.004 2.301v.143l.001.712c.002 1.968.005 3.935.009 5.903h.143c1.146.002 2.292.006 3.438.011.554.003 1.108.005 1.663.005.483.001.966.002 1.449.005l.767.002c.241 0 .481.001.722.003h.265l.362.002.205.001c.216.039.288.113.424.282.073.131.073.131.132.268l.065.151.065.155.132.307.058.137c.041.106.041.106.112.169.177.006.352.008.529.007h.168l.553-.001h.382l1.008-.002 1.028-.001 2.019-.003.055-.119.249-.53.087-.187.084-.178.077-.165c.072-.135.072-.135.197-.26.159-.016.159-.016.364-.017l.235-.002h.259l.272-.002c.246-.002.492-.003.739-.003l.771-.004 1.462-.007c.555-.002 1.109-.005 1.664-.009l3.423-.017c.007-2.012.013-4.023.016-6.035l.001-.713v-.143c.001-.765.004-1.531.007-2.296.003-.786.005-1.572.005-2.357 0-.485.002-.969.004-1.454.002-.372.002-.744.002-1.116l.002-.457c.002-.208.001-.417 0-.625l.003-.182c-.005-.463-.133-.867-.441-1.222-.267-.239-.572-.361-.916-.446-.262.067-.31.212-.446.437-.797 1.218-2.182 2.014-3.579 2.333-.441.089-.87.114-1.319.113h-.214c-.638-.009-1.311-.071-1.898-.341-.614-.213-1.473.088-2.091.209-1.077.203-1.077.203-1.43.022-.226-.451.049-1.184.141-1.656l.086-.449.038-.198c.034-.185.034-.185.028-.423-1.62-.006-3.24-.01-4.86-.013l-2.257-.006-1.967-.005-1.041-.003c-.327-.002-.654-.002-.981-.002l-.359-.002c-1.062-.018-1.062-.018-1.891.588zm22.357 18.38c-.145.218-.156.306-.125.563.14.19.216.244.451.283l.236.002.127.001.265-.001c.135-.001.269.001.404.004h.494c.265-.05.359-.141.522-.352 0-.206-.023-.321-.145-.488-.308-.217-.74-.148-1.098-.148l-.204-.002c-.478-.005-.478-.005-.929.139z" style="fill:var(--color3, #e9dbc5)"/>
      <path fill="#ff7d16" d="m14.563 12.757.125.118.119.104c.736.678 1.225 1.749 1.274 2.743.016.58-.031 1.096-.205 1.652-.214.755-.304 1.392-.125 2.16.152.654.195 1.219-.149 1.824-.353.491-.828.656-1.385.819-.267.088-.452.173-.64.384-.116.284-.105.563-.107.867-.005.509-.023.883-.348 1.297-1.029.832-2.603.796-3.857.697-.755-.081-1.6-.218-2.139-.799-.235-.43-.216-.843-.22-1.323l-.004-.18-.001-.162c-.029-.177-.1-.26-.212-.398v-.125a6.547 6.547 0 0 0-.574-.207c-.614-.206-1.099-.454-1.429-1.034a2.11 2.11 0 0 1-.184-.696 46.348 46.348 0 0 1-.012-.118c-.017-.314.043-.567.137-.867.234-.786.109-1.417-.113-2.185-.346-1.219-.17-2.509.419-3.62.734-1.169 1.918-1.736 3.221-2.049 2.088-.468 4.726-.39 6.411 1.096zm-3.719 4.036c-.211.264-.245.45-.24.787.055.449.339.791.682 1.068.521.351 1.105.622 1.742.514.352-.096.523-.234.722-.537.153-.291.146-.569.145-.891l.003-.153c0-.454-.073-.885-.382-1.234-.249-.222-.51-.272-.836-.305-.691.056-1.365.214-1.836.75zm-4.117-.269c-.334.539-.32 1.311-.184 1.918.126.311.306.496.582.683.521.174 1.024.073 1.511-.153.53-.29.92-.639 1.114-1.222.026-.395.001-.659-.271-.97-.516-.494-1.233-.68-1.93-.672-.344.035-.581.174-.823.416zm2.515 3.125c-.413.577-.748 1.189-.68 1.914.075.283.204.508.437.688.382.186.741.104 1.141.02.203-.023.297.028.484.105.368.042.642-.033.938-.25.21-.233.305-.524.326-.835-.062-.738-.486-1.497-1.033-1.986-.265-.217-.433-.265-.774-.259-.365.043-.613.335-.839.603z" style="fill:var(--color1, #ff7d16)"/>
      <path fill="#e9dbc5" d="m18.148 14.343.244-.002.266.002.281-.001h1.562l1.341.001h1.55l1.331-.001h.795c.249-.001.498 0 .747.001h.274c.125-.001.25 0 .374.001h.212c.23.039.334.121.499.281.077.155.071.259.073.433l.002.194.001.21.001.216.001.453.004.693.001.44.002.209-.001.196.001.172a.91.91 0 0 1-.273.535 6.74 6.74 0 0 1-.376.009l-.248.001-.274.001-.287.001-.782.002-.488.001-1.526.003c-.588.001-1.176.002-1.763.005l-1.362.003-.814.002c-.255.001-.51.002-.766.001l-.281.001h-.601c-.223-.038-.297-.103-.433-.281-.032-.161-.032-.161-.033-.346l-.003-.21.001-.226-.001-.233.001-.487a46.38 46.38 0 0 0-.004-.746v-.473l-.003-.226.002-.21v-.184c.092-.376.404-.443.75-.443zM18.019 22.031l.121-.001c.135-.001.269 0 .404.001l.289-.001c.262-.001.524 0 .786.001h.822l1.38.002c.532.002 1.064.002 1.597.001.512-.001 1.023 0 1.535.001h.654c.257 0 .513 0 .769.002h.283l.385.001h.218c.176.024.176.024.291.106.121.176.128.333.135.543-.084.184-.13.284-.312.375a7.947 7.947 0 0 1-.378.01l-.245.002-.27.001-.283.002-.931.004-.32.001-1.332.003c-.637.001-1.273.003-1.91.007-.447.002-.895.004-1.342.004-.267 0-.535.001-.802.003-.252.002-.503.002-.755.002-.092 0-.185 0-.277.002h-.378l-.214.001c-.25-.051-.344-.154-.501-.351-.032-.228-.036-.369.071-.574.167-.163.28-.145.51-.145zM18.086 19.594l.249-.002.273.002.287-.001c.26-.001.52 0 .78.001h.816l1.37.002c.528.002 1.057.002 1.585.001.508-.001 1.016 0 1.524.001h.649c.255 0 .509 0 .764.002h.281l.382.001h.216c.175.024.175.024.289.106.121.176.128.333.135.543-.084.184-.13.284-.312.375a7.946 7.946 0 0 1-.378.009l-.245.001-.27.001-.283.001-.77.002-.481.001-1.504.003c-.579.001-1.158.002-1.738.005-.447.002-.895.003-1.342.003l-.802.002c-.252.001-.503.002-.755.001l-.277.001h-.592c-.231-.038-.335-.119-.501-.281-.039-.125-.039-.125-.035-.25v-.125c.1-.354.352-.406.684-.406zM18.178 24.406l.149-.001c.162-.001.324 0 .486.001h.338l.708.002c.303.002.606.002.908.001l.698.001h.335l.468.002.14-.001c.311.005.311.005.464.113.086.133.09.224.089.382l.001.146c-.031.165-.083.219-.212.322-.186.093-.377.073-.582.075l-.143.002-.468.003-.161.001-.846.004c-.291.001-.583.004-.874.007l-.672.003c-.107 0-.215.001-.322.003-.15.002-.301.002-.451.002l-.134.003c-.239-.003-.341-.035-.531-.184-.128-.168-.128-.168-.164-.391.075-.46.359-.502.775-.496z" style="fill:var(--color3, #e9dbc5)"/>
    </symbol>
  </defs>
</svg>
